{"title":"Battle Of The Damned 2013 DVD-R (RLG)","uid":9413467,"size":4152712092,"categoryP":"video","categoryS":"movies_dvdr","magnet":"?xt=urn:btih:945937abc5c631ecc806ff4f1640aaefd615e701&amp;dn=Battle+Of+The+Damned+2013+DVD-R+%28RLG%29&amp;tr=udp%3A%2F%2Ftracker.openbittorrent.com%3A80&amp;tr=udp%3A%2F%2Fopen.demonii.com%3A1337&amp;tr=udp%3A%2F%2Ftracker.coppersurfer.tk%3A6969&amp;tr=udp%3A%2F%2Fexodus.desync.com%3A6969","seeders":1,"leechers":0,"uploader":"RedLegsGreaves","files":-1,"time":1388367359,"description":" &lt;a href=&quot;http://www.imdb.com/title/tt2210463/&quot; rel=&quot;nofollow&quot; target=&quot;_NEW&quot;&gt;http://www.imdb.com/title/tt2210463/&lt;/a&gt;\nFollowing a deadly viral outbreak, private military soldier Max Gatling leads a handful of survivors and a ragtag band of robots against an army of the infected.\n\nLanguages English.\nSubtitles Swedish, Norwegian, Danish, Finnish.\n\nFor Newer Users.\nSimply Drag downloaded folder to your Media Player. This is a PAL DVD.\nThis is ripped so you would have best quality, menu, bonus/special feature, language options etc.\nNote DVDs may not have have all* features.\n\nScreenshots &lt;a href=&quot;\nhttp://imageshack.com/a/img547/7489/txya.jpg&quot; rel=&quot;nofollow&quot; target=&quot;_NEW&quot;&gt;\nhttp://imageshack.com/a/img547/7489/txya.jpg&lt;/a&gt; &lt;a href=&quot;\nhttp://imageshack.com/a/img24/5411/8nce.jpg&quot; rel=&quot;nofollow&quot; target=&quot;_NEW&quot;&gt;\nhttp://imageshack.com/a/img24/5411/8nce.jpg&lt;/a&gt; &lt;a href=&quot;\nhttp://imageshack.com/a/img841/6163/mumk.jpg&quot; rel=&quot;nofollow&quot; target=&quot;_NEW&quot;&gt;\nhttp://imageshack.com/a/img841/6163/mumk.jpg&lt;/a&gt; &lt;a href=&quot;\nhttp://imageshack.com/a/img823/7006/l0mj.jpg&quot; rel=&quot;nofollow&quot; target=&quot;_NEW&quot;&gt;\nhttp://imageshack.com/a/img823/7006/l0mj.jpg&lt;/a&gt; &lt;a href=&quot;\nhttp://imageshack.com/a/img35/6664/mzzjn.jpg&quot; rel=&quot;nofollow&quot; target=&quot;_NEW&quot;&gt;\nhttp://imageshack.com/a/img35/6664/mzzjn.jpg&lt;/a&gt; &lt;a href=&quot;\nhttp://imageshack.com/a/img594/6533/56jh.jpg&quot; rel=&quot;nofollow&quot; target=&quot;_NEW&quot;&gt;\nhttp://imageshack.com/a/img594/6533/56jh.jpg&lt;/a&gt; &lt;a href=&quot;\nhttp://imageshack.com/a/img853/3598/ybg5.jpg&quot; rel=&quot;nofollow&quot; target=&quot;_NEW&quot;&gt;\nhttp://imageshack.com/a/img853/3598/ybg5.jpg&lt;/a&gt;\n\nVideo\nID : 224 (0xE0)\nFormat : MPEG Video\nBit rate mode : Variable\nBit rate : 6 086 Kbps\nMaximum bit rate : 8 000 Kbps\nWidth : 720 pixels\nHeight : 576 pixels\nDisplay aspect ratio : 16:9\nFrame rate : 25.000 fps\nStandard : PAL\nColor space : YUV\nChroma subsampling : 4:2:0\nBit depth : 8 bits\nScan type : Interlaced\nScan order : Top Field First\nCompression mode : Lossy\nBits/(Pixel*Frame) : 0.587\nTime code of first frame : 00:44:02:04\nTime code source : Group of pictures header\nStream size : 934 MiB (91%)\nColor primaries : BT.601 PAL\nTransfer characteristics : BT.470 System B, BT.470 System G\nMatrix coefficients : BT.601\n\nAudio\nID : 189 (0xBD)-128 (0x80)\nFormat : AC-3\nFormat/Info : Audio Coding 3\nMode extension : CM (complete main)\nFormat settings, Endianness : Big\nMuxing mode : DVD-Video\nDuration : 21mn 28s\nBit rate mode : Constant\nBit rate : 448 Kbps\nChannel count : 6 channels\nChannel positions : Front: L C R, Side: L R, LFE\nSampling rate : 48.0 KHz\nBit depth : 16 bits\nCompression mode : Lossy\nDelay relative to video : -896ms\nStream size : 68.8 MiB (7%)","torrent":{"xt":"urn:btih:945937abc5c631ecc806ff4f1640aaefd615e701","amp;dn":"Battle+Of+The+Damned+2013+DVD-R+%28RLG%29","amp;tr":["udp%3A%2F%2Ftracker.openbittorrent.com%3A80","udp%3A%2F%2Fopen.demonii.com%3A1337","udp%3A%2F%2Ftracker.coppersurfer.tk%3A6969","udp%3A%2F%2Fexodus.desync.com%3A6969"],"infoHash":"945937abc5c631ecc806ff4f1640aaefd615e701","infoHashBuffer":{"type":"Buffer","data":[148,89,55,171,197,198,49,236,200,6,255,79,22,64,170,239,214,21,231,1]},"announce":[],"urlList":[]}}